ISO-10303-21;
HEADER;
/* Generated by software containing ST-Developer
 * from STEP Tools, Inc. (www.steptools.com) 
 */

FILE_DESCRIPTION(
/* description */ (''),
/* implementation_level */ '2;1');

FILE_NAME(
/* name */ 'smbj-28a.step',
/* time_stamp */ '2026-09-24T22:59:11+08:00',
/* author */ (''),
/* organization */ (''),
/* preprocessor_version */ 'ST-DEVELOPER v20.2',
/* originating_system */ 'Autodesk Translation Framework v15.15.0.0',
/* authorisation */ '');

FILE_SCHEMA (('AUTOMOTIVE_DESIGN { 1 0 10303 214 3 1 1 }'));
ENDSEC;

DATA;
#10=MECHANICAL_DESIGN_GEOMETRIC_PRESENTATION_REPRESENTATION('',(#38,#39,
#40,#41,#42,#43,#44,#45,#46,#47,#48,#49,#50,#51,#52,#53,#54,#55,#56,#57,
#58,#59),#1334);
#11=SHAPE_REPRESENTATION_RELATIONSHIP('SRR','None',#1341,#12);
#12=ADVANCED_BREP_SHAPE_REPRESENTATION('',(#13),#1333);
#13=MANIFOLD_SOLID_BREP('Body1',#822);
#14=CIRCLE('',#843,0.2);
#15=CIRCLE('',#844,0.2);
#16=CIRCLE('',#847,0.2);
#17=CIRCLE('',#848,0.2);
#18=CIRCLE('',#851,0.2);
#19=CIRCLE('',#852,0.2);
#20=CIRCLE('',#855,0.2);
#21=CIRCLE('',#857,0.2);
#22=CIRCLE('',#864,0.2);
#23=CIRCLE('',#865,0.2);
#24=CIRCLE('',#868,0.2);
#25=CIRCLE('',#869,0.2);
#26=CIRCLE('',#872,0.2);
#27=CIRCLE('',#873,0.2);
#28=CIRCLE('',#875,0.2);
#29=CIRCLE('',#878,0.2);
#30=CYLINDRICAL_SURFACE('',#842,0.2);
#31=CYLINDRICAL_SURFACE('',#846,0.2);
#32=CYLINDRICAL_SURFACE('',#850,0.2);
#33=CYLINDRICAL_SURFACE('',#856,0.2);
#34=CYLINDRICAL_SURFACE('',#863,0.2);
#35=CYLINDRICAL_SURFACE('',#867,0.2);
#36=CYLINDRICAL_SURFACE('',#871,0.2);
#37=CYLINDRICAL_SURFACE('',#877,0.2);
#38=STYLED_ITEM('',(#1352),#784);
#39=STYLED_ITEM('',(#1350),#788);
#40=STYLED_ITEM('',(#1350),#789);
#41=STYLED_ITEM('',(#1350),#790);
#42=STYLED_ITEM('',(#1350),#791);
#43=STYLED_ITEM('',(#1350),#792);
#44=STYLED_ITEM('',(#1350),#793);
#45=STYLED_ITEM('',(#1350),#794);
#46=STYLED_ITEM('',(#1350),#795);
#47=STYLED_ITEM('',(#1350),#796);
#48=STYLED_ITEM('',(#1350),#798);
#49=STYLED_ITEM('',(#1350),#801);
#50=STYLED_ITEM('',(#1350),#803);
#51=STYLED_ITEM('',(#1350),#804);
#52=STYLED_ITEM('',(#1350),#805);
#53=STYLED_ITEM('',(#1350),#806);
#54=STYLED_ITEM('',(#1350),#807);
#55=STYLED_ITEM('',(#1350),#808);
#56=STYLED_ITEM('',(#1350),#809);
#57=STYLED_ITEM('',(#1350),#810);
#58=STYLED_ITEM('',(#1350),#811);
#59=STYLED_ITEM('',(#1351),#13);
#60=FACE_OUTER_BOUND('',#100,.T.);
#61=FACE_OUTER_BOUND('',#101,.T.);
#62=FACE_OUTER_BOUND('',#102,.T.);
#63=FACE_OUTER_BOUND('',#103,.T.);
#64=FACE_OUTER_BOUND('',#104,.T.);
#65=FACE_OUTER_BOUND('',#105,.T.);
#66=FACE_OUTER_BOUND('',#106,.T.);
#67=FACE_OUTER_BOUND('',#107,.T.);
#68=FACE_OUTER_BOUND('',#108,.T.);
#69=FACE_OUTER_BOUND('',#109,.T.);
#70=FACE_OUTER_BOUND('',#110,.T.);
#71=FACE_OUTER_BOUND('',#111,.T.);
#72=FACE_OUTER_BOUND('',#112,.T.);
#73=FACE_OUTER_BOUND('',#113,.T.);
#74=FACE_OUTER_BOUND('',#114,.T.);
#75=FACE_OUTER_BOUND('',#115,.T.);
#76=FACE_OUTER_BOUND('',#116,.T.);
#77=FACE_OUTER_BOUND('',#117,.T.);
#78=FACE_OUTER_BOUND('',#118,.T.);
#79=FACE_OUTER_BOUND('',#119,.T.);
#80=FACE_OUTER_BOUND('',#120,.T.);
#81=FACE_OUTER_BOUND('',#121,.T.);
#82=FACE_OUTER_BOUND('',#122,.T.);
#83=FACE_OUTER_BOUND('',#123,.T.);
#84=FACE_OUTER_BOUND('',#124,.T.);
#85=FACE_OUTER_BOUND('',#125,.T.);
#86=FACE_OUTER_BOUND('',#126,.T.);
#87=FACE_OUTER_BOUND('',#127,.T.);
#88=FACE_OUTER_BOUND('',#128,.T.);
#89=FACE_OUTER_BOUND('',#129,.T.);
#90=FACE_OUTER_BOUND('',#130,.T.);
#91=FACE_OUTER_BOUND('',#131,.T.);
#92=FACE_OUTER_BOUND('',#132,.T.);
#93=FACE_OUTER_BOUND('',#133,.T.);
#94=FACE_OUTER_BOUND('',#134,.T.);
#95=FACE_OUTER_BOUND('',#135,.T.);
#96=FACE_OUTER_BOUND('',#136,.T.);
#97=FACE_OUTER_BOUND('',#137,.T.);
#98=FACE_OUTER_BOUND('',#138,.T.);
#99=FACE_OUTER_BOUND('',#139,.T.);
#100=EDGE_LOOP('',(#522,#523,#524,#525));
#101=EDGE_LOOP('',(#526,#527,#528,#529));
#102=EDGE_LOOP('',(#530,#531,#532,#533));
#103=EDGE_LOOP('',(#534,#535,#536,#537));
#104=EDGE_LOOP('',(#538,#539,#540,#541));
#105=EDGE_LOOP('',(#542,#543,#544,#545,#546,#547,#548,#549));
#106=EDGE_LOOP('',(#550,#551,#552,#553));
#107=EDGE_LOOP('',(#554,#555,#556,#557));
#108=EDGE_LOOP('',(#558,#559,#560,#561));
#109=EDGE_LOOP('',(#562,#563,#564,#565));
#110=EDGE_LOOP('',(#566,#567,#568,#569));
#111=EDGE_LOOP('',(#570,#571,#572,#573));
#112=EDGE_LOOP('',(#574,#575,#576,#577,#578,#579,#580,#581,#582,#583,#584,
#585));
#113=EDGE_LOOP('',(#586,#587,#588,#589));
#114=EDGE_LOOP('',(#590,#591,#592,#593));
#115=EDGE_LOOP('',(#594,#595,#596,#597));
#116=EDGE_LOOP('',(#598,#599,#600,#601,#602,#603,#604,#605,#606,#607,#608,
#609));
#117=EDGE_LOOP('',(#610,#611,#612,#613,#614,#615,#616,#617));
#118=EDGE_LOOP('',(#618,#619,#620,#621,#622,#623,#624,#625));
#119=EDGE_LOOP('',(#626,#627,#628,#629));
#120=EDGE_LOOP('',(#630,#631,#632,#633));
#121=EDGE_LOOP('',(#634,#635,#636,#637));
#122=EDGE_LOOP('',(#638,#639,#640,#641));
#123=EDGE_LOOP('',(#642,#643,#644,#645));
#124=EDGE_LOOP('',(#646,#647,#648,#649,#650,#651,#652,#653,#654,#655,#656,
#657));
#125=EDGE_LOOP('',(#658,#659,#660,#661));
#126=EDGE_LOOP('',(#662,#663,#664,#665));
#127=EDGE_LOOP('',(#666,#667,#668,#669));
#128=EDGE_LOOP('',(#670,#671,#672,#673));
#129=EDGE_LOOP('',(#674,#675,#676,#677,#678,#679,#680,#681,#682,#683,#684,
#685));
#130=EDGE_LOOP('',(#686,#687,#688,#689));
#131=EDGE_LOOP('',(#690,#691,#692,#693));
#132=EDGE_LOOP('',(#694,#695,#696,#697,#698,#699,#700,#701));
#133=EDGE_LOOP('',(#702,#703,#704,#705));
#134=EDGE_LOOP('',(#706,#707,#708,#709,#710,#711));
#135=EDGE_LOOP('',(#712,#713,#714,#715,#716,#717,#718,#719,#720,#721,#722,
#723));
#136=EDGE_LOOP('',(#724,#725,#726,#727,#728,#729,#730,#731));
#137=EDGE_LOOP('',(#732,#733,#734,#735,#736,#737,#738,#739));
#138=EDGE_LOOP('',(#740,#741,#742,#743));
#139=EDGE_LOOP('',(#744,#745,#746,#747,#748,#749));
#140=LINE('',#1108,#238);
#141=LINE('',#1110,#239);
#142=LINE('',#1112,#240);
#143=LINE('',#1113,#241);
#144=LINE('',#1117,#242);
#145=LINE('',#1119,#243);
#146=LINE('',#1121,#244);
#147=LINE('',#1122,#245);
#148=LINE('',#1124,#246);
#149=LINE('',#1125,#247);
#150=LINE('',#1128,#248);
#151=LINE('',#1130,#249);
#152=LINE('',#1131,#250);
#153=LINE('',#1134,#251);
#154=LINE('',#1136,#252);
#155=LINE('',#1137,#253);
#156=LINE('',#1140,#254);
#157=LINE('',#1142,#255);
#158=LINE('',#1143,#256);
#159=LINE('',#1149,#257);
#160=LINE('',#1152,#258);
#161=LINE('',#1155,#259);
#162=LINE('',#1157,#260);
#163=LINE('',#1158,#261);
#164=LINE('',#1163,#262);
#165=LINE('',#1167,#263);
#166=LINE('',#1169,#264);
#167=LINE('',#1170,#265);
#168=LINE('',#1176,#266);
#169=LINE('',#1179,#267);
#170=LINE('',#1182,#268);
#171=LINE('',#1184,#269);
#172=LINE('',#1185,#270);
#173=LINE('',#1188,#271);
#174=LINE('',#1189,#272);
#175=LINE('',#1191,#273);
#176=LINE('',#1193,#274);
#177=LINE('',#1195,#275);
#178=LINE('',#1200,#276);
#179=LINE('',#1203,#277);
#180=LINE('',#1204,#278);
#181=LINE('',#1207,#279);
#182=LINE('',#1208,#280);
#183=LINE('',#1210,#281);
#184=LINE('',#1212,#282);
#185=LINE('',#1213,#283);
#186=LINE('',#1216,#284);
#187=LINE('',#1218,#285);
#188=LINE('',#1220,#286);
#189=LINE('',#1222,#287);
#190=LINE('',#1223,#288);
#191=LINE('',#1225,#289);
#192=LINE('',#1227,#290);
#193=LINE('',#1228,#291);
#194=LINE('',#1234,#292);
#195=LINE('',#1237,#293);
#196=LINE('',#1240,#294);
#197=LINE('',#1242,#295);
#198=LINE('',#1243,#296);
#199=LINE('',#1249,#297);
#200=LINE('',#1252,#298);
#201=LINE('',#1254,#299);
#202=LINE('',#1255,#300);
#203=LINE('',#1261,#301);
#204=LINE('',#1264,#302);
#205=LINE('',#1267,#303);
#206=LINE('',#1271,#304);
#207=LINE('',#1272,#305);
#208=LINE('',#1274,#306);
#209=LINE('',#1276,#307);
#210=LINE('',#1277,#308);
#211=LINE('',#1280,#309);
#212=LINE('',#1281,#310);
#213=LINE('',#1285,#311);
#214=LINE('',#1288,#312);
#215=LINE('',#1289,#313);
#216=LINE('',#1292,#314);
#217=LINE('',#1293,#315);
#218=LINE('',#1296,#316);
#219=LINE('',#1297,#317);
#220=LINE('',#1298,#318);
#221=LINE('',#1301,#319);
#222=LINE('',#1303,#320);
#223=LINE('',#1304,#321);
#224=LINE('',#1307,#322);
#225=LINE('',#1309,#323);
#226=LINE('',#1310,#324);
#227=LINE('',#1312,#325);
#228=LINE('',#1313,#326);
#229=LINE('',#1314,#327);
#230=LINE('',#1316,#328);
#231=LINE('',#1318,#329);
#232=LINE('',#1319,#330);
#233=LINE('',#1321,#331);
#234=LINE('',#1324,#332);
#235=LINE('',#1326,#333);
#236=LINE('',#1327,#334);
#237=LINE('',#1329,#335);
#238=VECTOR('',#896,10.);
#239=VECTOR('',#897,10.);
#240=VECTOR('',#898,10.);
#241=VECTOR('',#899,10.);
#242=VECTOR('',#902,10.);
#243=VECTOR('',#903,10.);
#244=VECTOR('',#904,10.);
#245=VECTOR('',#905,10.);
#246=VECTOR('',#908,10.);
#247=VECTOR('',#909,10.);
#248=VECTOR('',#912,10.);
#249=VECTOR('',#913,10.);
#250=VECTOR('',#914,10.);
#251=VECTOR('',#917,10.);
#252=VECTOR('',#918,10.);
#253=VECTOR('',#919,10.);
#254=VECTOR('',#922,10.);
#255=VECTOR('',#923,10.);
#256=VECTOR('',#924,10.);
#257=VECTOR('',#929,10.);
#258=VECTOR('',#932,10.);
#259=VECTOR('',#935,10.);
#260=VECTOR('',#936,10.);
#261=VECTOR('',#937,10.);
#262=VECTOR('',#942,10.);
#263=VECTOR('',#947,10.);
#264=VECTOR('',#948,10.);
#265=VECTOR('',#949,10.);
#266=VECTOR('',#954,10.);
#267=VECTOR('',#957,10.);
#268=VECTOR('',#960,10.);
#269=VECTOR('',#961,10.);
#270=VECTOR('',#962,10.);
#271=VECTOR('',#965,10.);
#272=VECTOR('',#966,10.);
#273=VECTOR('',#967,10.);
#274=VECTOR('',#968,10.);
#275=VECTOR('',#969,10.);
#276=VECTOR('',#976,10.);
#277=VECTOR('',#979,10.);
#278=VECTOR('',#980,10.);
#279=VECTOR('',#983,10.);
#280=VECTOR('',#984,10.);
#281=VECTOR('',#987,10.);
#282=VECTOR('',#988,10.);
#283=VECTOR('',#989,10.);
#284=VECTOR('',#992,10.);
#285=VECTOR('',#993,10.);
#286=VECTOR('',#994,10.);
#287=VECTOR('',#995,10.);
#288=VECTOR('',#996,10.);
#289=VECTOR('',#999,10.);
#290=VECTOR('',#1000,10.);
#291=VECTOR('',#1001,10.);
#292=VECTOR('',#1006,10.);
#293=VECTOR('',#1009,10.);
#294=VECTOR('',#1012,10.);
#295=VECTOR('',#1013,10.);
#296=VECTOR('',#1014,10.);
#297=VECTOR('',#1019,10.);
#298=VECTOR('',#1022,10.);
#299=VECTOR('',#1025,10.);
#300=VECTOR('',#1026,10.);
#301=VECTOR('',#1031,10.);
#302=VECTOR('',#1034,10.);
#303=VECTOR('',#1037,10.);
#304=VECTOR('',#1040,10.);
#305=VECTOR('',#1041,10.);
#306=VECTOR('',#1042,10.);
#307=VECTOR('',#1043,10.);
#308=VECTOR('',#1044,10.);
#309=VECTOR('',#1047,10.);
#310=VECTOR('',#1048,10.);
#311=VECTOR('',#1053,10.);
#312=VECTOR('',#1056,10.);
#313=VECTOR('',#1057,10.);
#314=VECTOR('',#1060,10.);
#315=VECTOR('',#1061,10.);
#316=VECTOR('',#1064,10.);
#317=VECTOR('',#1065,10.);
#318=VECTOR('',#1066,10.);
#319=VECTOR('',#1069,10.);
#320=VECTOR('',#1070,10.);
#321=VECTOR('',#1071,10.);
#322=VECTOR('',#1074,10.);
#323=VECTOR('',#1075,10.);
#324=VECTOR('',#1076,10.);
#325=VECTOR('',#1079,10.);
#326=VECTOR('',#1080,10.);
#327=VECTOR('',#1081,10.);
#328=VECTOR('',#1084,10.);
#329=VECTOR('',#1085,10.);
#330=VECTOR('',#1086,10.);
#331=VECTOR('',#1089,10.);
#332=VECTOR('',#1094,10.);
#333=VECTOR('',#1097,10.);
#334=VECTOR('',#1098,10.);
#335=VECTOR('',#1101,10.);
#336=VERTEX_POINT('',#1106);
#337=VERTEX_POINT('',#1107);
#338=VERTEX_POINT('',#1109);
#339=VERTEX_POINT('',#1111);
#340=VERTEX_POINT('',#1115);
#341=VERTEX_POINT('',#1116);
#342=VERTEX_POINT('',#1118);
#343=VERTEX_POINT('',#1120);
#344=VERTEX_POINT('',#1127);
#345=VERTEX_POINT('',#1129);
#346=VERTEX_POINT('',#1133);
#347=VERTEX_POINT('',#1135);
#348=VERTEX_POINT('',#1139);
#349=VERTEX_POINT('',#1141);
#350=VERTEX_POINT('',#1145);
#351=VERTEX_POINT('',#1146);
#352=VERTEX_POINT('',#1148);
#353=VERTEX_POINT('',#1150);
#354=VERTEX_POINT('',#1154);
#355=VERTEX_POINT('',#1156);
#356=VERTEX_POINT('',#1160);
#357=VERTEX_POINT('',#1162);
#358=VERTEX_POINT('',#1166);
#359=VERTEX_POINT('',#1168);
#360=VERTEX_POINT('',#1172);
#361=VERTEX_POINT('',#1173);
#362=VERTEX_POINT('',#1175);
#363=VERTEX_POINT('',#1177);
#364=VERTEX_POINT('',#1181);
#365=VERTEX_POINT('',#1183);
#366=VERTEX_POINT('',#1187);
#367=VERTEX_POINT('',#1190);
#368=VERTEX_POINT('',#1192);
#369=VERTEX_POINT('',#1194);
#370=VERTEX_POINT('',#1198);
#371=VERTEX_POINT('',#1202);
#372=VERTEX_POINT('',#1206);
#373=VERTEX_POINT('',#1211);
#374=VERTEX_POINT('',#1215);
#375=VERTEX_POINT('',#1217);
#376=VERTEX_POINT('',#1219);
#377=VERTEX_POINT('',#1221);
#378=VERTEX_POINT('',#1226);
#379=VERTEX_POINT('',#1230);
#380=VERTEX_POINT('',#1231);
#381=VERTEX_POINT('',#1233);
#382=VERTEX_POINT('',#1235);
#383=VERTEX_POINT('',#1239);
#384=VERTEX_POINT('',#1241);
#385=VERTEX_POINT('',#1245);
#386=VERTEX_POINT('',#1246);
#387=VERTEX_POINT('',#1248);
#388=VERTEX_POINT('',#1250);
#389=VERTEX_POINT('',#1257);
#390=VERTEX_POINT('',#1258);
#391=VERTEX_POINT('',#1260);
#392=VERTEX_POINT('',#1262);
#393=VERTEX_POINT('',#1266);
#394=VERTEX_POINT('',#1268);
#395=VERTEX_POINT('',#1270);
#396=VERTEX_POINT('',#1273);
#397=VERTEX_POINT('',#1275);
#398=VERTEX_POINT('',#1279);
#399=VERTEX_POINT('',#1283);
#400=VERTEX_POINT('',#1287);
#401=VERTEX_POINT('',#1291);
#402=VERTEX_POINT('',#1295);
#403=VERTEX_POINT('',#1300);
#404=VERTEX_POINT('',#1302);
#405=VERTEX_POINT('',#1306);
#406=VERTEX_POINT('',#1308);
#407=VERTEX_POINT('',#1317);
#408=EDGE_CURVE('',#336,#337,#140,.T.);
#409=EDGE_CURVE('',#336,#338,#141,.T.);
#410=EDGE_CURVE('',#339,#338,#142,.T.);
#411=EDGE_CURVE('',#337,#339,#143,.T.);
#412=EDGE_CURVE('',#340,#341,#144,.T.);
#413=EDGE_CURVE('',#342,#340,#145,.T.);
#414=EDGE_CURVE('',#343,#342,#146,.T.);
#415=EDGE_CURVE('',#343,#341,#147,.T.);
#416=EDGE_CURVE('',#341,#336,#148,.T.);
#417=EDGE_CURVE('',#338,#343,#149,.T.);
#418=EDGE_CURVE('',#344,#340,#150,.T.);
#419=EDGE_CURVE('',#345,#344,#151,.T.);
#420=EDGE_CURVE('',#342,#345,#152,.T.);
#421=EDGE_CURVE('',#346,#339,#153,.T.);
#422=EDGE_CURVE('',#347,#346,#154,.T.);
#423=EDGE_CURVE('',#337,#347,#155,.T.);
#424=EDGE_CURVE('',#345,#348,#156,.T.);
#425=EDGE_CURVE('',#348,#349,#157,.T.);
#426=EDGE_CURVE('',#346,#349,#158,.T.);
#427=EDGE_CURVE('',#350,#351,#14,.T.);
#428=EDGE_CURVE('',#351,#352,#159,.T.);
#429=EDGE_CURVE('',#352,#353,#15,.T.);
#430=EDGE_CURVE('',#353,#350,#160,.T.);
#431=EDGE_CURVE('',#351,#354,#161,.T.);
#432=EDGE_CURVE('',#355,#354,#162,.T.);
#433=EDGE_CURVE('',#355,#352,#163,.T.);
#434=EDGE_CURVE('',#354,#356,#16,.T.);
#435=EDGE_CURVE('',#356,#357,#164,.T.);
#436=EDGE_CURVE('',#357,#355,#17,.T.);
#437=EDGE_CURVE('',#356,#358,#165,.T.);
#438=EDGE_CURVE('',#359,#358,#166,.T.);
#439=EDGE_CURVE('',#359,#357,#167,.T.);
#440=EDGE_CURVE('',#360,#361,#18,.T.);
#441=EDGE_CURVE('',#361,#362,#168,.T.);
#442=EDGE_CURVE('',#362,#363,#19,.T.);
#443=EDGE_CURVE('',#363,#360,#169,.T.);
#444=EDGE_CURVE('',#363,#364,#170,.T.);
#445=EDGE_CURVE('',#365,#364,#171,.T.);
#446=EDGE_CURVE('',#365,#360,#172,.T.);
#447=EDGE_CURVE('',#366,#362,#173,.T.);
#448=EDGE_CURVE('',#358,#366,#174,.T.);
#449=EDGE_CURVE('',#367,#350,#175,.T.);
#450=EDGE_CURVE('',#368,#367,#176,.T.);
#451=EDGE_CURVE('',#369,#368,#177,.T.);
#452=EDGE_CURVE('',#364,#369,#20,.T.);
#453=EDGE_CURVE('',#370,#365,#21,.T.);
#454=EDGE_CURVE('',#369,#370,#178,.T.);
#455=EDGE_CURVE('',#371,#368,#179,.T.);
#456=EDGE_CURVE('',#371,#370,#180,.T.);
#457=EDGE_CURVE('',#353,#372,#181,.T.);
#458=EDGE_CURVE('',#372,#367,#182,.T.);
#459=EDGE_CURVE('',#372,#371,#183,.T.);
#460=EDGE_CURVE('',#373,#359,#184,.T.);
#461=EDGE_CURVE('',#361,#373,#185,.T.);
#462=EDGE_CURVE('',#366,#374,#186,.T.);
#463=EDGE_CURVE('',#374,#375,#187,.T.);
#464=EDGE_CURVE('',#375,#376,#188,.T.);
#465=EDGE_CURVE('',#377,#376,#189,.T.);
#466=EDGE_CURVE('',#377,#373,#190,.T.);
#467=EDGE_CURVE('',#367,#348,#191,.T.);
#468=EDGE_CURVE('',#344,#378,#192,.T.);
#469=EDGE_CURVE('',#378,#372,#193,.T.);
#470=EDGE_CURVE('',#379,#380,#22,.T.);
#471=EDGE_CURVE('',#380,#381,#194,.T.);
#472=EDGE_CURVE('',#381,#382,#23,.T.);
#473=EDGE_CURVE('',#382,#379,#195,.T.);
#474=EDGE_CURVE('',#383,#380,#196,.T.);
#475=EDGE_CURVE('',#383,#384,#197,.T.);
#476=EDGE_CURVE('',#381,#384,#198,.T.);
#477=EDGE_CURVE('',#385,#386,#24,.T.);
#478=EDGE_CURVE('',#386,#387,#199,.T.);
#479=EDGE_CURVE('',#387,#388,#25,.T.);
#480=EDGE_CURVE('',#388,#385,#200,.T.);
#481=EDGE_CURVE('',#387,#382,#201,.T.);
#482=EDGE_CURVE('',#379,#386,#202,.T.);
#483=EDGE_CURVE('',#389,#390,#26,.T.);
#484=EDGE_CURVE('',#390,#391,#203,.T.);
#485=EDGE_CURVE('',#391,#392,#27,.T.);
#486=EDGE_CURVE('',#392,#389,#204,.T.);
#487=EDGE_CURVE('',#391,#393,#205,.T.);
#488=EDGE_CURVE('',#394,#393,#28,.T.);
#489=EDGE_CURVE('',#394,#395,#206,.T.);
#490=EDGE_CURVE('',#383,#395,#207,.T.);
#491=EDGE_CURVE('',#385,#396,#208,.T.);
#492=EDGE_CURVE('',#397,#396,#209,.T.);
#493=EDGE_CURVE('',#397,#392,#210,.T.);
#494=EDGE_CURVE('',#398,#390,#211,.T.);
#495=EDGE_CURVE('',#393,#398,#212,.T.);
#496=EDGE_CURVE('',#398,#399,#29,.T.);
#497=EDGE_CURVE('',#399,#394,#213,.T.);
#498=EDGE_CURVE('',#400,#388,#214,.T.);
#499=EDGE_CURVE('',#396,#400,#215,.T.);
#500=EDGE_CURVE('',#401,#399,#216,.T.);
#501=EDGE_CURVE('',#395,#401,#217,.T.);
#502=EDGE_CURVE('',#389,#402,#218,.T.);
#503=EDGE_CURVE('',#400,#402,#219,.T.);
#504=EDGE_CURVE('',#401,#384,#220,.T.);
#505=EDGE_CURVE('',#374,#403,#221,.T.);
#506=EDGE_CURVE('',#403,#404,#222,.T.);
#507=EDGE_CURVE('',#404,#375,#223,.T.);
#508=EDGE_CURVE('',#376,#405,#224,.T.);
#509=EDGE_CURVE('',#405,#406,#225,.T.);
#510=EDGE_CURVE('',#406,#377,#226,.T.);
#511=EDGE_CURVE('',#402,#406,#227,.T.);
#512=EDGE_CURVE('',#405,#404,#228,.T.);
#513=EDGE_CURVE('',#403,#397,#229,.T.);
#514=EDGE_CURVE('',#376,#378,#230,.T.);
#515=EDGE_CURVE('',#407,#378,#231,.T.);
#516=EDGE_CURVE('',#405,#407,#232,.T.);
#517=EDGE_CURVE('',#375,#348,#233,.T.);
#518=EDGE_CURVE('',#347,#407,#234,.T.);
#519=EDGE_CURVE('',#384,#407,#235,.T.);
#520=EDGE_CURVE('',#349,#383,#236,.T.);
#521=EDGE_CURVE('',#404,#349,#237,.T.);
#522=ORIENTED_EDGE('',*,*,#408,.F.);
#523=ORIENTED_EDGE('',*,*,#409,.T.);
#524=ORIENTED_EDGE('',*,*,#410,.F.);
#525=ORIENTED_EDGE('',*,*,#411,.F.);
#526=ORIENTED_EDGE('',*,*,#412,.F.);
#527=ORIENTED_EDGE('',*,*,#413,.F.);
#528=ORIENTED_EDGE('',*,*,#414,.F.);
#529=ORIENTED_EDGE('',*,*,#415,.T.);
#530=ORIENTED_EDGE('',*,*,#416,.F.);
#531=ORIENTED_EDGE('',*,*,#415,.F.);
#532=ORIENTED_EDGE('',*,*,#417,.F.);
#533=ORIENTED_EDGE('',*,*,#409,.F.);
#534=ORIENTED_EDGE('',*,*,#413,.T.);
#535=ORIENTED_EDGE('',*,*,#418,.F.);
#536=ORIENTED_EDGE('',*,*,#419,.F.);
#537=ORIENTED_EDGE('',*,*,#420,.F.);
#538=ORIENTED_EDGE('',*,*,#411,.T.);
#539=ORIENTED_EDGE('',*,*,#421,.F.);
#540=ORIENTED_EDGE('',*,*,#422,.F.);
#541=ORIENTED_EDGE('',*,*,#423,.F.);
#542=ORIENTED_EDGE('',*,*,#410,.T.);
#543=ORIENTED_EDGE('',*,*,#417,.T.);
#544=ORIENTED_EDGE('',*,*,#414,.T.);
#545=ORIENTED_EDGE('',*,*,#420,.T.);
#546=ORIENTED_EDGE('',*,*,#424,.T.);
#547=ORIENTED_EDGE('',*,*,#425,.T.);
#548=ORIENTED_EDGE('',*,*,#426,.F.);
#549=ORIENTED_EDGE('',*,*,#421,.T.);
#550=ORIENTED_EDGE('',*,*,#427,.T.);
#551=ORIENTED_EDGE('',*,*,#428,.T.);
#552=ORIENTED_EDGE('',*,*,#429,.T.);
#553=ORIENTED_EDGE('',*,*,#430,.T.);
#554=ORIENTED_EDGE('',*,*,#428,.F.);
#555=ORIENTED_EDGE('',*,*,#431,.T.);
#556=ORIENTED_EDGE('',*,*,#432,.F.);
#557=ORIENTED_EDGE('',*,*,#433,.T.);
#558=ORIENTED_EDGE('',*,*,#434,.T.);
#559=ORIENTED_EDGE('',*,*,#435,.T.);
#560=ORIENTED_EDGE('',*,*,#436,.T.);
#561=ORIENTED_EDGE('',*,*,#432,.T.);
#562=ORIENTED_EDGE('',*,*,#435,.F.);
#563=ORIENTED_EDGE('',*,*,#437,.T.);
#564=ORIENTED_EDGE('',*,*,#438,.F.);
#565=ORIENTED_EDGE('',*,*,#439,.T.);
#566=ORIENTED_EDGE('',*,*,#440,.T.);
#567=ORIENTED_EDGE('',*,*,#441,.T.);
#568=ORIENTED_EDGE('',*,*,#442,.T.);
#569=ORIENTED_EDGE('',*,*,#443,.T.);
#570=ORIENTED_EDGE('',*,*,#443,.F.);
#571=ORIENTED_EDGE('',*,*,#444,.T.);
#572=ORIENTED_EDGE('',*,*,#445,.F.);
#573=ORIENTED_EDGE('',*,*,#446,.T.);
#574=ORIENTED_EDGE('',*,*,#442,.F.);
#575=ORIENTED_EDGE('',*,*,#447,.F.);
#576=ORIENTED_EDGE('',*,*,#448,.F.);
#577=ORIENTED_EDGE('',*,*,#437,.F.);
#578=ORIENTED_EDGE('',*,*,#434,.F.);
#579=ORIENTED_EDGE('',*,*,#431,.F.);
#580=ORIENTED_EDGE('',*,*,#427,.F.);
#581=ORIENTED_EDGE('',*,*,#449,.F.);
#582=ORIENTED_EDGE('',*,*,#450,.F.);
#583=ORIENTED_EDGE('',*,*,#451,.F.);
#584=ORIENTED_EDGE('',*,*,#452,.F.);
#585=ORIENTED_EDGE('',*,*,#444,.F.);
#586=ORIENTED_EDGE('',*,*,#453,.T.);
#587=ORIENTED_EDGE('',*,*,#445,.T.);
#588=ORIENTED_EDGE('',*,*,#452,.T.);
#589=ORIENTED_EDGE('',*,*,#454,.T.);
#590=ORIENTED_EDGE('',*,*,#454,.F.);
#591=ORIENTED_EDGE('',*,*,#451,.T.);
#592=ORIENTED_EDGE('',*,*,#455,.F.);
#593=ORIENTED_EDGE('',*,*,#456,.T.);
#594=ORIENTED_EDGE('',*,*,#430,.F.);
#595=ORIENTED_EDGE('',*,*,#457,.T.);
#596=ORIENTED_EDGE('',*,*,#458,.T.);
#597=ORIENTED_EDGE('',*,*,#449,.T.);
#598=ORIENTED_EDGE('',*,*,#440,.F.);
#599=ORIENTED_EDGE('',*,*,#446,.F.);
#600=ORIENTED_EDGE('',*,*,#453,.F.);
#601=ORIENTED_EDGE('',*,*,#456,.F.);
#602=ORIENTED_EDGE('',*,*,#459,.F.);
#603=ORIENTED_EDGE('',*,*,#457,.F.);
#604=ORIENTED_EDGE('',*,*,#429,.F.);
#605=ORIENTED_EDGE('',*,*,#433,.F.);
#606=ORIENTED_EDGE('',*,*,#436,.F.);
#607=ORIENTED_EDGE('',*,*,#439,.F.);
#608=ORIENTED_EDGE('',*,*,#460,.F.);
#609=ORIENTED_EDGE('',*,*,#461,.F.);
#610=ORIENTED_EDGE('',*,*,#460,.T.);
#611=ORIENTED_EDGE('',*,*,#438,.T.);
#612=ORIENTED_EDGE('',*,*,#448,.T.);
#613=ORIENTED_EDGE('',*,*,#462,.T.);
#614=ORIENTED_EDGE('',*,*,#463,.T.);
#615=ORIENTED_EDGE('',*,*,#464,.T.);
#616=ORIENTED_EDGE('',*,*,#465,.F.);
#617=ORIENTED_EDGE('',*,*,#466,.T.);
#618=ORIENTED_EDGE('',*,*,#459,.T.);
#619=ORIENTED_EDGE('',*,*,#455,.T.);
#620=ORIENTED_EDGE('',*,*,#450,.T.);
#621=ORIENTED_EDGE('',*,*,#467,.T.);
#622=ORIENTED_EDGE('',*,*,#424,.F.);
#623=ORIENTED_EDGE('',*,*,#419,.T.);
#624=ORIENTED_EDGE('',*,*,#468,.T.);
#625=ORIENTED_EDGE('',*,*,#469,.T.);
#626=ORIENTED_EDGE('',*,*,#470,.T.);
#627=ORIENTED_EDGE('',*,*,#471,.T.);
#628=ORIENTED_EDGE('',*,*,#472,.T.);
#629=ORIENTED_EDGE('',*,*,#473,.T.);
#630=ORIENTED_EDGE('',*,*,#471,.F.);
#631=ORIENTED_EDGE('',*,*,#474,.F.);
#632=ORIENTED_EDGE('',*,*,#475,.T.);
#633=ORIENTED_EDGE('',*,*,#476,.F.);
#634=ORIENTED_EDGE('',*,*,#477,.T.);
#635=ORIENTED_EDGE('',*,*,#478,.T.);
#636=ORIENTED_EDGE('',*,*,#479,.T.);
#637=ORIENTED_EDGE('',*,*,#480,.T.);
#638=ORIENTED_EDGE('',*,*,#473,.F.);
#639=ORIENTED_EDGE('',*,*,#481,.F.);
#640=ORIENTED_EDGE('',*,*,#478,.F.);
#641=ORIENTED_EDGE('',*,*,#482,.F.);
#642=ORIENTED_EDGE('',*,*,#483,.T.);
#643=ORIENTED_EDGE('',*,*,#484,.T.);
#644=ORIENTED_EDGE('',*,*,#485,.T.);
#645=ORIENTED_EDGE('',*,*,#486,.T.);
#646=ORIENTED_EDGE('',*,*,#485,.F.);
#647=ORIENTED_EDGE('',*,*,#487,.T.);
#648=ORIENTED_EDGE('',*,*,#488,.F.);
#649=ORIENTED_EDGE('',*,*,#489,.T.);
#650=ORIENTED_EDGE('',*,*,#490,.F.);
#651=ORIENTED_EDGE('',*,*,#474,.T.);
#652=ORIENTED_EDGE('',*,*,#470,.F.);
#653=ORIENTED_EDGE('',*,*,#482,.T.);
#654=ORIENTED_EDGE('',*,*,#477,.F.);
#655=ORIENTED_EDGE('',*,*,#491,.T.);
#656=ORIENTED_EDGE('',*,*,#492,.F.);
#657=ORIENTED_EDGE('',*,*,#493,.T.);
#658=ORIENTED_EDGE('',*,*,#484,.F.);
#659=ORIENTED_EDGE('',*,*,#494,.F.);
#660=ORIENTED_EDGE('',*,*,#495,.F.);
#661=ORIENTED_EDGE('',*,*,#487,.F.);
#662=ORIENTED_EDGE('',*,*,#496,.T.);
#663=ORIENTED_EDGE('',*,*,#497,.T.);
#664=ORIENTED_EDGE('',*,*,#488,.T.);
#665=ORIENTED_EDGE('',*,*,#495,.T.);
#666=ORIENTED_EDGE('',*,*,#480,.F.);
#667=ORIENTED_EDGE('',*,*,#498,.F.);
#668=ORIENTED_EDGE('',*,*,#499,.F.);
#669=ORIENTED_EDGE('',*,*,#491,.F.);
#670=ORIENTED_EDGE('',*,*,#497,.F.);
#671=ORIENTED_EDGE('',*,*,#500,.F.);
#672=ORIENTED_EDGE('',*,*,#501,.F.);
#673=ORIENTED_EDGE('',*,*,#489,.F.);
#674=ORIENTED_EDGE('',*,*,#483,.F.);
#675=ORIENTED_EDGE('',*,*,#502,.T.);
#676=ORIENTED_EDGE('',*,*,#503,.F.);
#677=ORIENTED_EDGE('',*,*,#498,.T.);
#678=ORIENTED_EDGE('',*,*,#479,.F.);
#679=ORIENTED_EDGE('',*,*,#481,.T.);
#680=ORIENTED_EDGE('',*,*,#472,.F.);
#681=ORIENTED_EDGE('',*,*,#476,.T.);
#682=ORIENTED_EDGE('',*,*,#504,.F.);
#683=ORIENTED_EDGE('',*,*,#500,.T.);
#684=ORIENTED_EDGE('',*,*,#496,.F.);
#685=ORIENTED_EDGE('',*,*,#494,.T.);
#686=ORIENTED_EDGE('',*,*,#505,.T.);
#687=ORIENTED_EDGE('',*,*,#506,.T.);
#688=ORIENTED_EDGE('',*,*,#507,.T.);
#689=ORIENTED_EDGE('',*,*,#463,.F.);
#690=ORIENTED_EDGE('',*,*,#508,.T.);
#691=ORIENTED_EDGE('',*,*,#509,.T.);
#692=ORIENTED_EDGE('',*,*,#510,.T.);
#693=ORIENTED_EDGE('',*,*,#465,.T.);
#694=ORIENTED_EDGE('',*,*,#503,.T.);
#695=ORIENTED_EDGE('',*,*,#511,.T.);
#696=ORIENTED_EDGE('',*,*,#509,.F.);
#697=ORIENTED_EDGE('',*,*,#512,.T.);
#698=ORIENTED_EDGE('',*,*,#506,.F.);
#699=ORIENTED_EDGE('',*,*,#513,.T.);
#700=ORIENTED_EDGE('',*,*,#492,.T.);
#701=ORIENTED_EDGE('',*,*,#499,.T.);
#702=ORIENTED_EDGE('',*,*,#508,.F.);
#703=ORIENTED_EDGE('',*,*,#514,.T.);
#704=ORIENTED_EDGE('',*,*,#515,.F.);
#705=ORIENTED_EDGE('',*,*,#516,.F.);
#706=ORIENTED_EDGE('',*,*,#464,.F.);
#707=ORIENTED_EDGE('',*,*,#517,.T.);
#708=ORIENTED_EDGE('',*,*,#467,.F.);
#709=ORIENTED_EDGE('',*,*,#458,.F.);
#710=ORIENTED_EDGE('',*,*,#469,.F.);
#711=ORIENTED_EDGE('',*,*,#514,.F.);
#712=ORIENTED_EDGE('',*,*,#441,.F.);
#713=ORIENTED_EDGE('',*,*,#461,.T.);
#714=ORIENTED_EDGE('',*,*,#466,.F.);
#715=ORIENTED_EDGE('',*,*,#510,.F.);
#716=ORIENTED_EDGE('',*,*,#511,.F.);
#717=ORIENTED_EDGE('',*,*,#502,.F.);
#718=ORIENTED_EDGE('',*,*,#486,.F.);
#719=ORIENTED_EDGE('',*,*,#493,.F.);
#720=ORIENTED_EDGE('',*,*,#513,.F.);
#721=ORIENTED_EDGE('',*,*,#505,.F.);
#722=ORIENTED_EDGE('',*,*,#462,.F.);
#723=ORIENTED_EDGE('',*,*,#447,.T.);
#724=ORIENTED_EDGE('',*,*,#408,.T.);
#725=ORIENTED_EDGE('',*,*,#423,.T.);
#726=ORIENTED_EDGE('',*,*,#518,.T.);
#727=ORIENTED_EDGE('',*,*,#515,.T.);
#728=ORIENTED_EDGE('',*,*,#468,.F.);
#729=ORIENTED_EDGE('',*,*,#418,.T.);
#730=ORIENTED_EDGE('',*,*,#412,.T.);
#731=ORIENTED_EDGE('',*,*,#416,.T.);
#732=ORIENTED_EDGE('',*,*,#504,.T.);
#733=ORIENTED_EDGE('',*,*,#519,.T.);
#734=ORIENTED_EDGE('',*,*,#518,.F.);
#735=ORIENTED_EDGE('',*,*,#422,.T.);
#736=ORIENTED_EDGE('',*,*,#426,.T.);
#737=ORIENTED_EDGE('',*,*,#520,.T.);
#738=ORIENTED_EDGE('',*,*,#490,.T.);
#739=ORIENTED_EDGE('',*,*,#501,.T.);
#740=ORIENTED_EDGE('',*,*,#507,.F.);
#741=ORIENTED_EDGE('',*,*,#521,.T.);
#742=ORIENTED_EDGE('',*,*,#425,.F.);
#743=ORIENTED_EDGE('',*,*,#517,.F.);
#744=ORIENTED_EDGE('',*,*,#512,.F.);
#745=ORIENTED_EDGE('',*,*,#516,.T.);
#746=ORIENTED_EDGE('',*,*,#519,.F.);
#747=ORIENTED_EDGE('',*,*,#475,.F.);
#748=ORIENTED_EDGE('',*,*,#520,.F.);
#749=ORIENTED_EDGE('',*,*,#521,.F.);
#750=PLANE('',#836);
#751=PLANE('',#837);
#752=PLANE('',#838);
#753=PLANE('',#839);
#754=PLANE('',#840);
#755=PLANE('',#841);
#756=PLANE('',#845);
#757=PLANE('',#849);
#758=PLANE('',#853);
#759=PLANE('',#854);
#760=PLANE('',#858);
#761=PLANE('',#859);
#762=PLANE('',#860);
#763=PLANE('',#861);
#764=PLANE('',#862);
#765=PLANE('',#866);
#766=PLANE('',#870);
#767=PLANE('',#874);
#768=PLANE('',#876);
#769=PLANE('',#879);
#770=PLANE('',#880);
#771=PLANE('',#881);
#772=PLANE('',#882);
#773=PLANE('',#883);
#774=PLANE('',#884);
#775=PLANE('',#885);
#776=PLANE('',#886);
#777=PLANE('',#887);
#778=PLANE('',#888);
#779=PLANE('',#889);
#780=PLANE('',#890);
#781=PLANE('',#891);
#782=ADVANCED_FACE('',(#60),#750,.F.);
#783=ADVANCED_FACE('',(#61),#751,.F.);
#784=ADVANCED_FACE('',(#62),#752,.F.);
#785=ADVANCED_FACE('',(#63),#753,.T.);
#786=ADVANCED_FACE('',(#64),#754,.T.);
#787=ADVANCED_FACE('',(#65),#755,.T.);
#788=ADVANCED_FACE('',(#66),#30,.F.);
#789=ADVANCED_FACE('',(#67),#756,.F.);
#790=ADVANCED_FACE('',(#68),#31,.F.);
#791=ADVANCED_FACE('',(#69),#757,.F.);
#792=ADVANCED_FACE('',(#70),#32,.T.);
#793=ADVANCED_FACE('',(#71),#758,.F.);
#794=ADVANCED_FACE('',(#72),#759,.F.);
#795=ADVANCED_FACE('',(#73),#33,.T.);
#796=ADVANCED_FACE('',(#74),#760,.F.);
#797=ADVANCED_FACE('',(#75),#761,.F.);
#798=ADVANCED_FACE('',(#76),#762,.F.);
#799=ADVANCED_FACE('',(#77),#763,.T.);
#800=ADVANCED_FACE('',(#78),#764,.T.);
#801=ADVANCED_FACE('',(#79),#34,.F.);
#802=ADVANCED_FACE('',(#80),#765,.T.);
#803=ADVANCED_FACE('',(#81),#35,.F.);
#804=ADVANCED_FACE('',(#82),#766,.T.);
#805=ADVANCED_FACE('',(#83),#36,.T.);
#806=ADVANCED_FACE('',(#84),#767,.T.);
#807=ADVANCED_FACE('',(#85),#768,.T.);
#808=ADVANCED_FACE('',(#86),#37,.T.);
#809=ADVANCED_FACE('',(#87),#769,.T.);
#810=ADVANCED_FACE('',(#88),#770,.T.);
#811=ADVANCED_FACE('',(#89),#771,.T.);
#812=ADVANCED_FACE('',(#90),#772,.T.);
#813=ADVANCED_FACE('',(#91),#773,.T.);
#814=ADVANCED_FACE('',(#92),#774,.T.);
#815=ADVANCED_FACE('',(#93),#775,.T.);
#816=ADVANCED_FACE('',(#94),#776,.T.);
#817=ADVANCED_FACE('',(#95),#777,.F.);
#818=ADVANCED_FACE('',(#96),#778,.T.);
#819=ADVANCED_FACE('',(#97),#779,.T.);
#820=ADVANCED_FACE('',(#98),#780,.T.);
#821=ADVANCED_FACE('',(#99),#781,.T.);
#822=CLOSED_SHELL('',(#782,#783,#784,#785,#786,#787,#788,#789,#790,#791,
#792,#793,#794,#795,#796,#797,#798,#799,#800,#801,#802,#803,#804,#805,#806,
#807,#808,#809,#810,#811,#812,#813,#814,#815,#816,#817,#818,#819,#820,#821));
#823=DERIVED_UNIT_ELEMENT(#825,1.);
#824=DERIVED_UNIT_ELEMENT(#1336,-3.);
#825=(
MASS_UNIT()
NAMED_UNIT(*)
SI_UNIT(.KILO.,.GRAM.)
);
#826=DERIVED_UNIT((#823,#824));
#827=MEASURE_REPRESENTATION_ITEM('density measure',
POSITIVE_RATIO_MEASURE(7850.),#826);
#828=PROPERTY_DEFINITION_REPRESENTATION(#833,#830);
#829=PROPERTY_DEFINITION_REPRESENTATION(#834,#831);
#830=REPRESENTATION('material name',(#832),#1333);
#831=REPRESENTATION('density',(#827),#1333);
#832=DESCRIPTIVE_REPRESENTATION_ITEM('Steel','Steel');
#833=PROPERTY_DEFINITION('material property','material name',#1343);
#834=PROPERTY_DEFINITION('material property','density of part',#1343);
#835=AXIS2_PLACEMENT_3D('',#1104,#892,#893);
#836=AXIS2_PLACEMENT_3D('',#1105,#894,#895);
#837=AXIS2_PLACEMENT_3D('',#1114,#900,#901);
#838=AXIS2_PLACEMENT_3D('',#1123,#906,#907);
#839=AXIS2_PLACEMENT_3D('',#1126,#910,#911);
#840=AXIS2_PLACEMENT_3D('',#1132,#915,#916);
#841=AXIS2_PLACEMENT_3D('',#1138,#920,#921);
#842=AXIS2_PLACEMENT_3D('',#1144,#925,#926);
#843=AXIS2_PLACEMENT_3D('',#1147,#927,#928);
#844=AXIS2_PLACEMENT_3D('',#1151,#930,#931);
#845=AXIS2_PLACEMENT_3D('',#1153,#933,#934);
#846=AXIS2_PLACEMENT_3D('',#1159,#938,#939);
#847=AXIS2_PLACEMENT_3D('',#1161,#940,#941);
#848=AXIS2_PLACEMENT_3D('',#1164,#943,#944);
#849=AXIS2_PLACEMENT_3D('',#1165,#945,#946);
#850=AXIS2_PLACEMENT_3D('',#1171,#950,#951);
#851=AXIS2_PLACEMENT_3D('',#1174,#952,#953);
#852=AXIS2_PLACEMENT_3D('',#1178,#955,#956);
#853=AXIS2_PLACEMENT_3D('',#1180,#958,#959);
#854=AXIS2_PLACEMENT_3D('',#1186,#963,#964);
#855=AXIS2_PLACEMENT_3D('',#1196,#970,#971);
#856=AXIS2_PLACEMENT_3D('',#1197,#972,#973);
#857=AXIS2_PLACEMENT_3D('',#1199,#974,#975);
#858=AXIS2_PLACEMENT_3D('',#1201,#977,#978);
#859=AXIS2_PLACEMENT_3D('',#1205,#981,#982);
#860=AXIS2_PLACEMENT_3D('',#1209,#985,#986);
#861=AXIS2_PLACEMENT_3D('',#1214,#990,#991);
#862=AXIS2_PLACEMENT_3D('',#1224,#997,#998);
#863=AXIS2_PLACEMENT_3D('',#1229,#1002,#1003);
#864=AXIS2_PLACEMENT_3D('',#1232,#1004,#1005);
#865=AXIS2_PLACEMENT_3D('',#1236,#1007,#1008);
#866=AXIS2_PLACEMENT_3D('',#1238,#1010,#1011);
#867=AXIS2_PLACEMENT_3D('',#1244,#1015,#1016);
#868=AXIS2_PLACEMENT_3D('',#1247,#1017,#1018);
#869=AXIS2_PLACEMENT_3D('',#1251,#1020,#1021);
#870=AXIS2_PLACEMENT_3D('',#1253,#1023,#1024);
#871=AXIS2_PLACEMENT_3D('',#1256,#1027,#1028);
#872=AXIS2_PLACEMENT_3D('',#1259,#1029,#1030);
#873=AXIS2_PLACEMENT_3D('',#1263,#1032,#1033);
#874=AXIS2_PLACEMENT_3D('',#1265,#1035,#1036);
#875=AXIS2_PLACEMENT_3D('',#1269,#1038,#1039);
#876=AXIS2_PLACEMENT_3D('',#1278,#1045,#1046);
#877=AXIS2_PLACEMENT_3D('',#1282,#1049,#1050);
#878=AXIS2_PLACEMENT_3D('',#1284,#1051,#1052);
#879=AXIS2_PLACEMENT_3D('',#1286,#1054,#1055);
#880=AXIS2_PLACEMENT_3D('',#1290,#1058,#1059);
#881=AXIS2_PLACEMENT_3D('',#1294,#1062,#1063);
#882=AXIS2_PLACEMENT_3D('',#1299,#1067,#1068);
#883=AXIS2_PLACEMENT_3D('',#1305,#1072,#1073);
#884=AXIS2_PLACEMENT_3D('',#1311,#1077,#1078);
#885=AXIS2_PLACEMENT_3D('',#1315,#1082,#1083);
#886=AXIS2_PLACEMENT_3D('',#1320,#1087,#1088);
#887=AXIS2_PLACEMENT_3D('',#1322,#1090,#1091);
#888=AXIS2_PLACEMENT_3D('',#1323,#1092,#1093);
#889=AXIS2_PLACEMENT_3D('',#1325,#1095,#1096);
#890=AXIS2_PLACEMENT_3D('',#1328,#1099,#1100);
#891=AXIS2_PLACEMENT_3D('',#1330,#1102,#1103);
#892=DIRECTION('axis',(0.,0.,1.));
#893=DIRECTION('refdir',(1.,0.,0.));
#894=DIRECTION('center_axis',(1.,0.,0.));
#895=DIRECTION('ref_axis',(0.,-1.,0.));
#896=DIRECTION('',(0.,-0.148340452930245,0.988936352868297));
#897=DIRECTION('',(0.,-1.,0.));
#898=DIRECTION('',(0.,-0.148340452930245,-0.988936352868297));
#899=DIRECTION('',(0.,-1.,0.));
#900=DIRECTION('center_axis',(-1.,0.,0.));
#901=DIRECTION('ref_axis',(0.,1.,0.));
#902=DIRECTION('',(0.,0.148340452930245,-0.988936352868297));
#903=DIRECTION('',(0.,1.,0.));
#904=DIRECTION('',(0.,0.148340452930245,0.988936352868297));
#905=DIRECTION('',(0.,1.,0.));
#906=DIRECTION('center_axis',(0.,0.,-1.));
#907=DIRECTION('ref_axis',(-1.,0.,0.));
#908=DIRECTION('',(1.,0.,0.));
#909=DIRECTION('',(-1.,0.,0.));
#910=DIRECTION('center_axis',(0.,0.,1.));
#911=DIRECTION('ref_axis',(1.,0.,0.));
#912=DIRECTION('',(1.,0.,0.));
#913=DIRECTION('',(-1.40891246779842E-16,1.,0.));
#914=DIRECTION('',(-1.,0.,0.));
#915=DIRECTION('center_axis',(0.,0.,1.));
#916=DIRECTION('ref_axis',(1.,0.,0.));
#917=DIRECTION('',(-1.,0.,0.));
#918=DIRECTION('',(0.,-1.,0.));
#919=DIRECTION('',(1.,0.,0.));
#920=DIRECTION('center_axis',(0.,-0.988936352868298,0.148340452930245));
#921=DIRECTION('ref_axis',(0.,-0.148340452930245,-0.988936352868297));
#922=DIRECTION('',(-0.146734796413356,-0.146734796413356,-0.978231976089037));
#923=DIRECTION('',(1.,0.,0.));
#924=DIRECTION('',(0.146734796413356,-0.146734796413356,-0.978231976089037));
#925=DIRECTION('center_axis',(0.,1.,0.));
#926=DIRECTION('ref_axis',(-0.707106781186544,0.,0.70710678118655));
#927=DIRECTION('center_axis',(0.,-1.,0.));
#928=DIRECTION('ref_axis',(-0.707106781186544,0.,0.70710678118655));
#929=DIRECTION('',(0.,1.,0.));
#930=DIRECTION('center_axis',(0.,1.,0.));
#931=DIRECTION('ref_axis',(-0.707106781186544,0.,0.70710678118655));
#932=DIRECTION('',(0.,-1.,0.));
#933=DIRECTION('center_axis',(-1.,0.,0.));
#934=DIRECTION('ref_axis',(0.,0.,1.));
#935=DIRECTION('',(0.,0.,-1.));
#936=DIRECTION('',(0.,-1.,0.));
#937=DIRECTION('',(0.,0.,1.));
#938=DIRECTION('center_axis',(0.,1.,0.));
#939=DIRECTION('ref_axis',(-0.707106781186548,0.,-0.707106781186547));
#940=DIRECTION('center_axis',(0.,-1.,0.));
#941=DIRECTION('ref_axis',(-0.707106781186548,0.,-0.707106781186547));
#942=DIRECTION('',(0.,1.,0.));
#943=DIRECTION('center_axis',(0.,1.,0.));
#944=DIRECTION('ref_axis',(-0.707106781186548,0.,-0.707106781186547));
#945=DIRECTION('center_axis',(0.,0.,-1.));
#946=DIRECTION('ref_axis',(-1.,0.,0.));
#947=DIRECTION('',(1.,0.,0.));
#948=DIRECTION('',(1.40891246779842E-16,-1.,0.));
#949=DIRECTION('',(-1.,0.,0.));
#950=DIRECTION('center_axis',(0.,1.,0.));
#951=DIRECTION('ref_axis',(-0.707106781186548,0.,-0.707106781186548));
#952=DIRECTION('center_axis',(0.,-1.,0.));
#953=DIRECTION('ref_axis',(-0.707106781186548,0.,-0.707106781186548));
#954=DIRECTION('',(0.,-1.,0.));
#955=DIRECTION('center_axis',(0.,1.,0.));
#956=DIRECTION('ref_axis',(-0.707106781186548,0.,-0.707106781186548));
#957=DIRECTION('',(0.,1.,0.));
#958=DIRECTION('center_axis',(1.,0.,0.));
#959=DIRECTION('ref_axis',(0.,0.,-1.));
#960=DIRECTION('',(0.,0.,1.));
#961=DIRECTION('',(0.,-1.,0.));
#962=DIRECTION('',(0.,0.,-1.));
#963=DIRECTION('center_axis',(0.,1.,0.));
#964=DIRECTION('ref_axis',(0.,0.,-1.));
#965=DIRECTION('',(-1.,0.,6.36675189538987E-16));
#966=DIRECTION('',(0.148340452930245,0.,-0.988936352868297));
#967=DIRECTION('',(-1.,0.,1.22002530178589E-14));
#968=DIRECTION('',(-0.148340452930245,0.,-0.988936352868297));
#969=DIRECTION('',(1.,0.,0.));
#970=DIRECTION('center_axis',(0.,1.,0.));
#971=DIRECTION('ref_axis',(-0.707106781186548,0.,0.707106781186548));
#972=DIRECTION('center_axis',(0.,1.,0.));
#973=DIRECTION('ref_axis',(-0.707106781186548,0.,0.707106781186548));
#974=DIRECTION('center_axis',(0.,-1.,0.));
#975=DIRECTION('ref_axis',(-0.707106781186548,0.,0.707106781186548));
#976=DIRECTION('',(0.,1.,0.));
#977=DIRECTION('center_axis',(0.,0.,-1.));
#978=DIRECTION('ref_axis',(-1.,0.,0.));
#979=DIRECTION('',(1.40891246779842E-16,-1.,0.));
#980=DIRECTION('',(-1.,0.,0.));
#981=DIRECTION('center_axis',(1.22002530178589E-14,0.,1.));
#982=DIRECTION('ref_axis',(1.,0.,-1.22002530178589E-14));
#983=DIRECTION('',(1.,0.,-1.22002530178589E-14));
#984=DIRECTION('',(1.40891246779842E-16,-1.,0.));
#985=DIRECTION('center_axis',(0.,-1.,0.));
#986=DIRECTION('ref_axis',(0.,0.,1.));
#987=DIRECTION('',(0.148340452930245,0.,0.988936352868297));
#988=DIRECTION('',(-0.148340452930245,0.,0.988936352868297));
#989=DIRECTION('',(1.,0.,-6.36675189538987E-16));
#990=DIRECTION('center_axis',(-0.988936352868298,-1.39332475741524E-16,
-0.148340452930245));
#991=DIRECTION('ref_axis',(-0.148340452930245,0.,0.988936352868297));
#992=DIRECTION('',(1.40891246779842E-16,-1.,0.));
#993=DIRECTION('',(-0.146734796413356,-0.146734796413356,0.978231976089037));
#994=DIRECTION('',(-1.40891246779842E-16,1.,0.));
#995=DIRECTION('',(-0.146734796413356,0.146734796413356,0.978231976089037));
#996=DIRECTION('',(1.40891246779842E-16,-1.,0.));
#997=DIRECTION('center_axis',(-0.988936352868298,-1.39332475741524E-16,
0.148340452930245));
#998=DIRECTION('ref_axis',(0.148340452930245,0.,0.988936352868297));
#999=DIRECTION('',(1.40891246779842E-16,-1.,0.));
#1000=DIRECTION('',(-0.146734796413356,0.146734796413356,-0.978231976089037));
#1001=DIRECTION('',(1.40891246779842E-16,-1.,0.));
#1002=DIRECTION('center_axis',(0.,1.,0.));
#1003=DIRECTION('ref_axis',(0.707106781186544,0.,0.70710678118655));
#1004=DIRECTION('center_axis',(0.,-1.,0.));
#1005=DIRECTION('ref_axis',(0.707106781186544,0.,0.70710678118655));
#1006=DIRECTION('',(0.,1.,0.));
#1007=DIRECTION('center_axis',(0.,1.,0.));
#1008=DIRECTION('ref_axis',(0.707106781186544,0.,0.70710678118655));
#1009=DIRECTION('',(0.,-1.,0.));
#1010=DIRECTION('center_axis',(1.22002530178589E-14,0.,-1.));
#1011=DIRECTION('ref_axis',(-1.,0.,-1.22002530178589E-14));
#1012=DIRECTION('',(1.,0.,1.22002530178589E-14));
#1013=DIRECTION('',(0.,1.,0.));
#1014=DIRECTION('',(-1.,0.,-1.22002530178589E-14));
#1015=DIRECTION('center_axis',(0.,1.,0.));
#1016=DIRECTION('ref_axis',(0.707106781186548,0.,-0.707106781186547));
#1017=DIRECTION('center_axis',(0.,-1.,0.));
#1018=DIRECTION('ref_axis',(0.707106781186548,0.,-0.707106781186547));
#1019=DIRECTION('',(0.,1.,0.));
#1020=DIRECTION('center_axis',(0.,1.,0.));
#1021=DIRECTION('ref_axis',(0.707106781186548,0.,-0.707106781186547));
#1022=DIRECTION('',(0.,-1.,0.));
#1023=DIRECTION('center_axis',(-1.,0.,0.));
#1024=DIRECTION('ref_axis',(0.,0.,1.));
#1025=DIRECTION('',(0.,0.,1.));
#1026=DIRECTION('',(0.,0.,-1.));
#1027=DIRECTION('center_axis',(0.,1.,0.));
#1028=DIRECTION('ref_axis',(0.707106781186548,0.,-0.707106781186547));
#1029=DIRECTION('center_axis',(0.,-1.,0.));
#1030=DIRECTION('ref_axis',(0.707106781186548,0.,-0.707106781186547));
#1031=DIRECTION('',(0.,-1.,0.));
#1032=DIRECTION('center_axis',(0.,1.,0.));
#1033=DIRECTION('ref_axis',(0.707106781186548,0.,-0.707106781186547));
#1034=DIRECTION('',(0.,1.,0.));
#1035=DIRECTION('center_axis',(0.,-1.,0.));
#1036=DIRECTION('ref_axis',(0.,0.,-1.));
#1037=DIRECTION('',(0.,0.,1.));
#1038=DIRECTION('center_axis',(0.,1.,0.));
#1039=DIRECTION('ref_axis',(0.707106781186548,0.,0.707106781186548));
#1040=DIRECTION('',(-1.,0.,0.));
#1041=DIRECTION('',(-0.148340452930245,0.,0.988936352868297));
#1042=DIRECTION('',(-1.,0.,0.));
#1043=DIRECTION('',(0.148340452930245,0.,0.988936352868298));
#1044=DIRECTION('',(1.,0.,6.36675189538987E-16));
#1045=DIRECTION('center_axis',(1.,0.,0.));
#1046=DIRECTION('ref_axis',(0.,0.,-1.));
#1047=DIRECTION('',(0.,0.,-1.));
#1048=DIRECTION('',(0.,1.,0.));
#1049=DIRECTION('center_axis',(0.,1.,0.));
#1050=DIRECTION('ref_axis',(0.707106781186548,0.,0.707106781186548));
#1051=DIRECTION('center_axis',(0.,-1.,0.));
#1052=DIRECTION('ref_axis',(0.707106781186548,0.,0.707106781186548));
#1053=DIRECTION('',(0.,-1.,0.));
#1054=DIRECTION('center_axis',(0.,0.,1.));
#1055=DIRECTION('ref_axis',(1.,0.,0.));
#1056=DIRECTION('',(1.,0.,0.));
#1057=DIRECTION('',(0.,1.,0.));
#1058=DIRECTION('center_axis',(0.,0.,1.));
#1059=DIRECTION('ref_axis',(1.,0.,0.));
#1060=DIRECTION('',(1.,0.,0.));
#1061=DIRECTION('',(0.,1.,0.));
#1062=DIRECTION('center_axis',(0.,1.,0.));
#1063=DIRECTION('ref_axis',(0.,0.,1.));
#1064=DIRECTION('',(-1.,0.,-6.36675189538987E-16));
#1065=DIRECTION('',(-0.148340452930245,0.,-0.988936352868298));
#1066=DIRECTION('',(0.148340452930245,0.,-0.988936352868297));
#1067=DIRECTION('center_axis',(0.,-0.988936352868298,-0.148340452930245));
#1068=DIRECTION('ref_axis',(0.,0.148340452930245,-0.988936352868297));
#1069=DIRECTION('',(1.,0.,0.));
#1070=DIRECTION('',(0.146734796413356,-0.146734796413356,0.978231976089037));
#1071=DIRECTION('',(-1.,0.,0.));
#1072=DIRECTION('center_axis',(0.,0.988936352868298,-0.148340452930245));
#1073=DIRECTION('ref_axis',(0.,0.148340452930245,0.988936352868297));
#1074=DIRECTION('',(1.,0.,0.));
#1075=DIRECTION('',(-0.146734796413356,-0.146734796413356,-0.978231976089037));
#1076=DIRECTION('',(-1.,0.,0.));
#1077=DIRECTION('center_axis',(0.988936352868298,0.,-0.148340452930245));
#1078=DIRECTION('ref_axis',(-0.148340452930245,0.,-0.988936352868297));
#1079=DIRECTION('',(0.,1.,0.));
#1080=DIRECTION('',(0.,-1.,0.));
#1081=DIRECTION('',(0.,1.,0.));
#1082=DIRECTION('center_axis',(0.,1.,0.));
#1083=DIRECTION('ref_axis',(-1.,0.,0.));
#1084=DIRECTION('',(0.,0.,1.));
#1085=DIRECTION('',(-1.,0.,0.));
#1086=DIRECTION('',(0.,0.,1.));
#1087=DIRECTION('center_axis',(-1.,-1.40891246779842E-16,0.));
#1088=DIRECTION('ref_axis',(1.40891246779842E-16,-1.,0.));
#1089=DIRECTION('',(0.,0.,1.));
#1090=DIRECTION('center_axis',(0.,0.,1.));
#1091=DIRECTION('ref_axis',(1.,0.,0.));
#1092=DIRECTION('center_axis',(0.,0.988936352868298,0.148340452930245));
#1093=DIRECTION('ref_axis',(0.,-0.148340452930245,0.988936352868297));
#1094=DIRECTION('',(0.146734796413356,0.146734796413356,-0.978231976089037));
#1095=DIRECTION('center_axis',(0.988936352868298,0.,0.148340452930245));
#1096=DIRECTION('ref_axis',(0.148340452930245,0.,-0.988936352868297));
#1097=DIRECTION('',(0.,1.,0.));
#1098=DIRECTION('',(0.,1.,0.));
#1099=DIRECTION('center_axis',(0.,-1.,0.));
#1100=DIRECTION('ref_axis',(1.,0.,0.));
#1101=DIRECTION('',(0.,0.,1.));
#1102=DIRECTION('center_axis',(1.,0.,0.));
#1103=DIRECTION('ref_axis',(0.,1.,0.));
#1104=CARTESIAN_POINT('',(0.,0.,0.));
#1105=CARTESIAN_POINT('Origin',(2.1,1.92,2.5));
#1106=CARTESIAN_POINT('',(2.1,1.823,2.48));
#1107=CARTESIAN_POINT('',(2.1,1.82,2.5));
#1108=CARTESIAN_POINT('',(2.1,1.85860024449878,2.24266503667482));
#1109=CARTESIAN_POINT('',(2.1,-1.823,2.48));
#1110=CARTESIAN_POINT('',(2.1,-1.92,2.48));
#1111=CARTESIAN_POINT('',(2.1,-1.82,2.5));
#1112=CARTESIAN_POINT('',(2.1,-1.81635085574572,2.52432762836186));
#1113=CARTESIAN_POINT('',(2.1,0.96,2.5));
#1114=CARTESIAN_POINT('Origin',(1.6,-1.92,2.5));
#1115=CARTESIAN_POINT('',(1.6,1.82,2.5));
#1116=CARTESIAN_POINT('',(1.6,1.823,2.48));
#1117=CARTESIAN_POINT('',(1.6,1.81635085574572,2.52432762836186));
#1118=CARTESIAN_POINT('',(1.6,-1.82,2.5));
#1119=CARTESIAN_POINT('',(1.6,-0.960000000000001,2.5));
#1120=CARTESIAN_POINT('',(1.6,-1.823,2.48));
#1121=CARTESIAN_POINT('',(1.6,-1.85860024449878,2.24266503667482));
#1122=CARTESIAN_POINT('',(1.6,1.82,2.48));
#1123=CARTESIAN_POINT('Origin',(1.85,-5.55111512312578E-16,2.48));
#1124=CARTESIAN_POINT('',(1.6125,1.823,2.48));
#1125=CARTESIAN_POINT('',(0.2375,-1.823,2.48));
#1126=CARTESIAN_POINT('Origin',(-5.55111512312578E-16,-5.55111512312578E-16,
2.5));
#1127=CARTESIAN_POINT('',(-2.6,1.82,2.5));
#1128=CARTESIAN_POINT('',(1.375,1.82,2.5));
#1129=CARTESIAN_POINT('',(-2.6,-1.82,2.5));
#1130=CARTESIAN_POINT('',(-2.6,0.984999999999999,2.5));
#1131=CARTESIAN_POINT('',(-1.375,-1.82,2.5));
#1132=CARTESIAN_POINT('Origin',(-5.55111512312578E-16,-5.55111512312578E-16,
2.5));
#1133=CARTESIAN_POINT('',(2.6,-1.82,2.5));
#1134=CARTESIAN_POINT('',(-1.375,-1.82,2.5));
#1135=CARTESIAN_POINT('',(2.6,1.82,2.5));
#1136=CARTESIAN_POINT('',(2.6,-0.985000000000001,2.5));
#1137=CARTESIAN_POINT('',(1.375,1.82,2.5));
#1138=CARTESIAN_POINT('Origin',(-1.375,-1.895,2.));
#1139=CARTESIAN_POINT('',(-2.75,-1.97,1.5));
#1140=CARTESIAN_POINT('',(-2.6,-1.82,2.5));
#1141=CARTESIAN_POINT('',(2.75,-1.97,1.5));
#1142=CARTESIAN_POINT('',(-1.375,-1.97,1.5));
#1143=CARTESIAN_POINT('',(2.6,-1.82,2.5));
#1144=CARTESIAN_POINT('Origin',(-2.7775,0.,1.3));
#1145=CARTESIAN_POINT('',(-2.7775,-1.2,1.5));
#1146=CARTESIAN_POINT('',(-2.9775,-1.2,1.3));
#1147=CARTESIAN_POINT('Origin',(-2.7775,-1.2,1.3));
#1148=CARTESIAN_POINT('',(-2.9775,1.2,1.3));
#1149=CARTESIAN_POINT('',(-2.9775,0.,1.3));
#1150=CARTESIAN_POINT('',(-2.7775,1.2,1.5));
#1151=CARTESIAN_POINT('Origin',(-2.7775,1.2,1.3));
#1152=CARTESIAN_POINT('',(-2.7775,0.,1.5));
#1153=CARTESIAN_POINT('Origin',(-2.9775,0.,0.15));
#1154=CARTESIAN_POINT('',(-2.9775,-1.2,0.35));
#1155=CARTESIAN_POINT('',(-2.9775,-1.2,1.5));
#1156=CARTESIAN_POINT('',(-2.9775,1.2,0.35));
#1157=CARTESIAN_POINT('',(-2.9775,0.,0.35));
#1158=CARTESIAN_POINT('',(-2.9775,1.2,1.5));
#1159=CARTESIAN_POINT('Origin',(-2.7775,0.,0.35));
#1160=CARTESIAN_POINT('',(-2.7775,-1.2,0.15));
#1161=CARTESIAN_POINT('Origin',(-2.7775,-1.2,0.35));
#1162=CARTESIAN_POINT('',(-2.7775,1.2,0.15));
#1163=CARTESIAN_POINT('',(-2.7775,0.,0.15));
#1164=CARTESIAN_POINT('Origin',(-2.7775,1.2,0.35));
#1165=CARTESIAN_POINT('Origin',(-2.6225,0.,0.15));
#1166=CARTESIAN_POINT('',(-2.6225,-1.2,0.15));
#1167=CARTESIAN_POINT('',(-2.9775,-1.2,0.15));
#1168=CARTESIAN_POINT('',(-2.6225,1.2,0.15));
#1169=CARTESIAN_POINT('',(-2.6225,0.4925,0.15));
#1170=CARTESIAN_POINT('',(-2.9775,1.2,0.15));
#1171=CARTESIAN_POINT('Origin',(-2.9275,-2.77555756156289E-16,0.2));
#1172=CARTESIAN_POINT('',(-3.1275,1.2,0.2));
#1173=CARTESIAN_POINT('',(-2.9275,1.2,2.08511124574018E-16));
#1174=CARTESIAN_POINT('Origin',(-2.9275,1.2,0.2));
#1175=CARTESIAN_POINT('',(-2.9275,-1.2,2.08511124574018E-16));
#1176=CARTESIAN_POINT('',(-2.9275,-2.77555756156289E-16,0.));
#1177=CARTESIAN_POINT('',(-3.1275,-1.2,0.2));
#1178=CARTESIAN_POINT('Origin',(-2.9275,-1.2,0.2));
#1179=CARTESIAN_POINT('',(-3.1275,-2.77555756156289E-16,0.2));
#1180=CARTESIAN_POINT('Origin',(-3.1275,0.,1.65));
#1181=CARTESIAN_POINT('',(-3.1275,-1.2,1.45));
#1182=CARTESIAN_POINT('',(-3.1275,-1.2,1.65));
#1183=CARTESIAN_POINT('',(-3.1275,1.2,1.45));
#1184=CARTESIAN_POINT('',(-3.1275,0.,1.45));
#1185=CARTESIAN_POINT('',(-3.1275,1.2,1.65));
#1186=CARTESIAN_POINT('Origin',(-2.86375,-1.2,0.825));
#1187=CARTESIAN_POINT('',(-2.6,-1.2,0.));
#1188=CARTESIAN_POINT('',(-3.1275,-1.2,3.35846162481816E-16));
#1189=CARTESIAN_POINT('',(-2.70091534229829,-1.2,0.672768948655257));
#1190=CARTESIAN_POINT('',(-2.75,-1.2,1.5));
#1191=CARTESIAN_POINT('',(-2.75,-1.2,1.5));
#1192=CARTESIAN_POINT('',(-2.7275,-1.2,1.65));
#1193=CARTESIAN_POINT('',(-2.76326253056235,-1.2,1.41158312958435));
#1194=CARTESIAN_POINT('',(-2.9275,-1.2,1.65));
#1195=CARTESIAN_POINT('',(-2.7275,-1.2,1.65));
#1196=CARTESIAN_POINT('Origin',(-2.9275,-1.2,1.45));
#1197=CARTESIAN_POINT('Origin',(-2.9275,0.,1.45));
#1198=CARTESIAN_POINT('',(-2.9275,1.2,1.65));
#1199=CARTESIAN_POINT('Origin',(-2.9275,1.2,1.45));
#1200=CARTESIAN_POINT('',(-2.9275,0.,1.65));
#1201=CARTESIAN_POINT('Origin',(-2.7275,0.,1.65));
#1202=CARTESIAN_POINT('',(-2.7275,1.2,1.65));
#1203=CARTESIAN_POINT('',(-2.7275,0.4925,1.65));
#1204=CARTESIAN_POINT('',(-2.7275,1.2,1.65));
#1205=CARTESIAN_POINT('Origin',(-2.9775,0.,1.5));
#1206=CARTESIAN_POINT('',(-2.75,1.2,1.5));
#1207=CARTESIAN_POINT('',(-2.75,1.2,1.5));
#1208=CARTESIAN_POINT('',(-2.75,0.984999999999999,1.5));
#1209=CARTESIAN_POINT('Origin',(-2.86375,1.2,0.825));
#1210=CARTESIAN_POINT('',(-2.76326253056235,1.2,1.41158312958435));
#1211=CARTESIAN_POINT('',(-2.6,1.2,0.));
#1212=CARTESIAN_POINT('',(-2.70091534229829,1.2,0.672768948655257));
#1213=CARTESIAN_POINT('',(-3.1275,1.2,3.35846162481816E-16));
#1214=CARTESIAN_POINT('Origin',(-2.675,0.984999999999999,0.5));
#1215=CARTESIAN_POINT('',(-2.6,-1.82,0.));
#1216=CARTESIAN_POINT('',(-2.6,0.984999999999999,0.));
#1217=CARTESIAN_POINT('',(-2.75,-1.97,1.));
#1218=CARTESIAN_POINT('',(-2.6,-1.82,0.));
#1219=CARTESIAN_POINT('',(-2.75,1.97,1.));
#1220=CARTESIAN_POINT('',(-2.75,0.984999999999999,1.));
#1221=CARTESIAN_POINT('',(-2.6,1.82,0.));
#1222=CARTESIAN_POINT('',(-2.6,1.82,0.));
#1223=CARTESIAN_POINT('',(-2.6,0.984999999999999,0.));
#1224=CARTESIAN_POINT('Origin',(-2.675,0.984999999999999,2.));
#1225=CARTESIAN_POINT('',(-2.75,0.984999999999999,1.5));
#1226=CARTESIAN_POINT('',(-2.75,1.97,1.5));
#1227=CARTESIAN_POINT('',(-2.6,1.82,2.5));
#1228=CARTESIAN_POINT('',(-2.75,0.984999999999999,1.5));
#1229=CARTESIAN_POINT('Origin',(2.7775,0.,1.3));
#1230=CARTESIAN_POINT('',(2.9775,-1.2,1.3));
#1231=CARTESIAN_POINT('',(2.7775,-1.2,1.5));
#1232=CARTESIAN_POINT('Origin',(2.7775,-1.2,1.3));
#1233=CARTESIAN_POINT('',(2.7775,1.2,1.5));
#1234=CARTESIAN_POINT('',(2.7775,0.,1.5));
#1235=CARTESIAN_POINT('',(2.9775,1.2,1.3));
#1236=CARTESIAN_POINT('Origin',(2.7775,1.2,1.3));
#1237=CARTESIAN_POINT('',(2.9775,0.,1.3));
#1238=CARTESIAN_POINT('Origin',(2.9775,0.,1.5));
#1239=CARTESIAN_POINT('',(2.75,-1.2,1.5));
#1240=CARTESIAN_POINT('',(2.75,-1.2,1.5));
#1241=CARTESIAN_POINT('',(2.75,1.2,1.5));
#1242=CARTESIAN_POINT('',(2.75,-0.985000000000001,1.5));
#1243=CARTESIAN_POINT('',(2.75,1.2,1.5));
#1244=CARTESIAN_POINT('Origin',(2.7775,0.,0.35));
#1245=CARTESIAN_POINT('',(2.7775,-1.2,0.15));
#1246=CARTESIAN_POINT('',(2.9775,-1.2,0.35));
#1247=CARTESIAN_POINT('Origin',(2.7775,-1.2,0.35));
#1248=CARTESIAN_POINT('',(2.9775,1.2,0.35));
#1249=CARTESIAN_POINT('',(2.9775,0.,0.35));
#1250=CARTESIAN_POINT('',(2.7775,1.2,0.15));
#1251=CARTESIAN_POINT('Origin',(2.7775,1.2,0.35));
#1252=CARTESIAN_POINT('',(2.7775,0.,0.15));
#1253=CARTESIAN_POINT('Origin',(2.9775,0.,0.15));
#1254=CARTESIAN_POINT('',(2.9775,1.2,1.5));
#1255=CARTESIAN_POINT('',(2.9775,-1.2,1.5));
#1256=CARTESIAN_POINT('Origin',(2.9275,-2.77555756156289E-16,0.2));
#1257=CARTESIAN_POINT('',(2.9275,1.2,2.08511124574018E-16));
#1258=CARTESIAN_POINT('',(3.1275,1.2,0.2));
#1259=CARTESIAN_POINT('Origin',(2.9275,1.2,0.2));
#1260=CARTESIAN_POINT('',(3.1275,-1.2,0.2));
#1261=CARTESIAN_POINT('',(3.1275,-2.77555756156289E-16,0.2));
#1262=CARTESIAN_POINT('',(2.9275,-1.2,2.08511124574018E-16));
#1263=CARTESIAN_POINT('Origin',(2.9275,-1.2,0.2));
#1264=CARTESIAN_POINT('',(2.9275,-2.77555756156289E-16,0.));
#1265=CARTESIAN_POINT('Origin',(2.86375,-1.2,0.825));
#1266=CARTESIAN_POINT('',(3.1275,-1.2,1.45));
#1267=CARTESIAN_POINT('',(3.1275,-1.2,1.65));
#1268=CARTESIAN_POINT('',(2.9275,-1.2,1.65));
#1269=CARTESIAN_POINT('Origin',(2.9275,-1.2,1.45));
#1270=CARTESIAN_POINT('',(2.7275,-1.2,1.65));
#1271=CARTESIAN_POINT('',(2.7275,-1.2,1.65));
#1272=CARTESIAN_POINT('',(2.76326253056235,-1.2,1.41158312958435));
#1273=CARTESIAN_POINT('',(2.6225,-1.2,0.15));
#1274=CARTESIAN_POINT('',(2.9775,-1.2,0.15));
#1275=CARTESIAN_POINT('',(2.6,-1.2,0.));
#1276=CARTESIAN_POINT('',(2.70091534229829,-1.2,0.672768948655257));
#1277=CARTESIAN_POINT('',(3.1275,-1.2,3.35846162481816E-16));
#1278=CARTESIAN_POINT('Origin',(3.1275,0.,1.65));
#1279=CARTESIAN_POINT('',(3.1275,1.2,1.45));
#1280=CARTESIAN_POINT('',(3.1275,1.2,1.65));
#1281=CARTESIAN_POINT('',(3.1275,0.,1.45));
#1282=CARTESIAN_POINT('Origin',(2.9275,0.,1.45));
#1283=CARTESIAN_POINT('',(2.9275,1.2,1.65));
#1284=CARTESIAN_POINT('Origin',(2.9275,1.2,1.45));
#1285=CARTESIAN_POINT('',(2.9275,0.,1.65));
#1286=CARTESIAN_POINT('Origin',(2.6225,0.,0.15));
#1287=CARTESIAN_POINT('',(2.6225,1.2,0.15));
#1288=CARTESIAN_POINT('',(2.9775,1.2,0.15));
#1289=CARTESIAN_POINT('',(2.6225,-0.4925,0.15));
#1290=CARTESIAN_POINT('Origin',(2.7275,0.,1.65));
#1291=CARTESIAN_POINT('',(2.7275,1.2,1.65));
#1292=CARTESIAN_POINT('',(2.7275,1.2,1.65));
#1293=CARTESIAN_POINT('',(2.7275,-0.4925,1.65));
#1294=CARTESIAN_POINT('Origin',(2.86375,1.2,0.825));
#1295=CARTESIAN_POINT('',(2.6,1.2,0.));
#1296=CARTESIAN_POINT('',(3.1275,1.2,3.35846162481816E-16));
#1297=CARTESIAN_POINT('',(2.70091534229829,1.2,0.672768948655257));
#1298=CARTESIAN_POINT('',(2.76326253056235,1.2,1.41158312958435));
#1299=CARTESIAN_POINT('Origin',(-1.375,-1.895,0.5));
#1300=CARTESIAN_POINT('',(2.6,-1.82,0.));
#1301=CARTESIAN_POINT('',(-1.375,-1.82,0.));
#1302=CARTESIAN_POINT('',(2.75,-1.97,1.));
#1303=CARTESIAN_POINT('',(2.6,-1.82,0.));
#1304=CARTESIAN_POINT('',(-1.375,-1.97,1.));
#1305=CARTESIAN_POINT('Origin',(1.375,1.895,0.5));
#1306=CARTESIAN_POINT('',(2.75,1.97,1.));
#1307=CARTESIAN_POINT('',(1.375,1.97,1.));
#1308=CARTESIAN_POINT('',(2.6,1.82,0.));
#1309=CARTESIAN_POINT('',(2.75,1.97,1.));
#1310=CARTESIAN_POINT('',(1.375,1.82,0.));
#1311=CARTESIAN_POINT('Origin',(2.675,-0.985000000000001,0.5));
#1312=CARTESIAN_POINT('',(2.6,-0.985000000000001,0.));
#1313=CARTESIAN_POINT('',(2.75,-0.985000000000001,1.));
#1314=CARTESIAN_POINT('',(2.6,-0.985000000000001,0.));
#1315=CARTESIAN_POINT('Origin',(2.75,1.97,0.));
#1316=CARTESIAN_POINT('',(-2.75,1.97,0.));
#1317=CARTESIAN_POINT('',(2.75,1.97,1.5));
#1318=CARTESIAN_POINT('',(1.375,1.97,1.5));
#1319=CARTESIAN_POINT('',(2.75,1.97,0.));
#1320=CARTESIAN_POINT('Origin',(-2.75,1.97,0.));
#1321=CARTESIAN_POINT('',(-2.75,-1.97,0.));
#1322=CARTESIAN_POINT('Origin',(-5.55111512312578E-16,-5.55111512312578E-16,
0.));
#1323=CARTESIAN_POINT('Origin',(1.375,1.895,2.));
#1324=CARTESIAN_POINT('',(2.6,1.82,2.5));
#1325=CARTESIAN_POINT('Origin',(2.675,-0.985000000000001,2.));
#1326=CARTESIAN_POINT('',(2.75,-0.985000000000001,1.5));
#1327=CARTESIAN_POINT('',(2.75,-0.985000000000001,1.5));
#1328=CARTESIAN_POINT('Origin',(-2.75,-1.97,0.));
#1329=CARTESIAN_POINT('',(2.75,-1.97,0.));
#1330=CARTESIAN_POINT('Origin',(2.75,-1.97,0.));
#1331=UNCERTAINTY_MEASURE_WITH_UNIT(LENGTH_MEASURE(0.01),#1335,
'DISTANCE_ACCURACY_VALUE',
'Maximum model space distance between geometric entities at asserted c
onnectivities');
#1332=UNCERTAINTY_MEASURE_WITH_UNIT(LENGTH_MEASURE(0.01),#1335,
'DISTANCE_ACCURACY_VALUE',
'Maximum model space distance between geometric entities at asserted c
onnectivities');
#1333=(
GEOMETRIC_REPRESENTATION_CONTEXT(3)
GLOBAL_UNCERTAINTY_ASSIGNED_CONTEXT((#1331))
GLOBAL_UNIT_ASSIGNED_CONTEXT((#1335,#1337,#1338))
REPRESENTATION_CONTEXT('','3D')
);
#1334=(
GEOMETRIC_REPRESENTATION_CONTEXT(3)
GLOBAL_UNCERTAINTY_ASSIGNED_CONTEXT((#1332))
GLOBAL_UNIT_ASSIGNED_CONTEXT((#1335,#1337,#1338))
REPRESENTATION_CONTEXT('','3D')
);
#1335=(
LENGTH_UNIT()
NAMED_UNIT(*)
SI_UNIT(.MILLI.,.METRE.)
);
#1336=(
LENGTH_UNIT()
NAMED_UNIT(*)
SI_UNIT($,.METRE.)
);
#1337=(
NAMED_UNIT(*)
PLANE_ANGLE_UNIT()
SI_UNIT($,.RADIAN.)
);
#1338=(
NAMED_UNIT(*)
SI_UNIT($,.STERADIAN.)
SOLID_ANGLE_UNIT()
);
#1339=SHAPE_DEFINITION_REPRESENTATION(#1340,#1341);
#1340=PRODUCT_DEFINITION_SHAPE('',$,#1343);
#1341=SHAPE_REPRESENTATION('',(#835),#1333);
#1342=PRODUCT_DEFINITION_CONTEXT('part definition',#1347,'design');
#1343=PRODUCT_DEFINITION('2026-09-24-22-49-01-662','tvs diode',#1344,#1342);
#1344=PRODUCT_DEFINITION_FORMATION('',$,#1349);
#1345=PRODUCT_RELATED_PRODUCT_CATEGORY('tvs diode','tvs diode',(#1349));
#1346=APPLICATION_PROTOCOL_DEFINITION('international standard',
'automotive_design',2009,#1347);
#1347=APPLICATION_CONTEXT(
'Core Data for Automotive Mechanical Design Process');
#1348=PRODUCT_CONTEXT('part definition',#1347,'mechanical');
#1349=PRODUCT('2026-09-24-22-49-01-662','tvs diode',$,(#1348));
#1350=PRESENTATION_STYLE_ASSIGNMENT((#1353));
#1351=PRESENTATION_STYLE_ASSIGNMENT((#1354));
#1352=PRESENTATION_STYLE_ASSIGNMENT((#1355));
#1353=SURFACE_STYLE_USAGE(.BOTH.,#1356);
#1354=SURFACE_STYLE_USAGE(.BOTH.,#1357);
#1355=SURFACE_STYLE_USAGE(.BOTH.,#1358);
#1356=SURFACE_SIDE_STYLE('',(#1359));
#1357=SURFACE_SIDE_STYLE('',(#1360));
#1358=SURFACE_SIDE_STYLE('',(#1361));
#1359=SURFACE_STYLE_FILL_AREA(#1362);
#1360=SURFACE_STYLE_FILL_AREA(#1363);
#1361=SURFACE_STYLE_FILL_AREA(#1364);
#1362=FILL_AREA_STYLE('Steel - Satin',(#1365));
#1363=FILL_AREA_STYLE('Plastic - Matte (Black)',(#1366));
#1364=FILL_AREA_STYLE('Plastic - Matte (White)',(#1367));
#1365=FILL_AREA_STYLE_COLOUR('Steel - Satin',#1368);
#1366=FILL_AREA_STYLE_COLOUR('Plastic - Matte (Black)',#1369);
#1367=FILL_AREA_STYLE_COLOUR('Plastic - Matte (White)',#1370);
#1368=COLOUR_RGB('Steel - Satin',0.627450980392157,0.627450980392157,0.627450980392157);
#1369=COLOUR_RGB('Plastic - Matte (Black)',0.0980392156862745,0.0980392156862745,
0.0980392156862745);
#1370=COLOUR_RGB('Plastic - Matte (White)',0.964705882352941,0.964705882352941,
0.952941176470588);
ENDSEC;
END-ISO-10303-21;
